<?xml version="1.0" encoding="UTF-8"?>
<svg data-bbox="27.45 6.003 945.1 287.997" height="400" width="1000pt" viewBox="0 0 1000 300" style="isolation:isolate" xmlns="http://www.w3.org/2000/svg" data-type="color">
    <g>
        <defs>
            <clipPath id="7466f70f-a02c-4665-b415-252ae3fb9d71">
                <path d="M1000 0v300H0V0z"/>
            </clipPath>
        </defs>
        <g clip-path="url(#7466f70f-a02c-4665-b415-252ae3fb9d71)">
            <path fill="#464646" d="M90.426 234.483V78.827h49.213q11.743 0 18.175 5.165 6.431 5.164 8.668 14.496t2.237 23.829q0 13.228-3.542 20.657t-12.303 10.329q7.27 1.449 10.532 7.067 3.262 5.617 3.262 15.221l-.373 58.892h-31.316v-60.885q0-6.524-2.61-8.336t-9.507-1.812v71.033zm32.622-98.032h7.643q6.711 0 6.711-14.134 0-6.161-.559-9.242-.56-3.08-2.051-4.258t-4.287-1.178h-7.457zm122.472 98.032h-66.176V78.827h64.125v30.081h-31.503v30.261h30.198v29.355h-30.198v35.697h33.554zm48.653 1.449q-21.81 0-31.504-10.509-9.693-10.51-9.693-33.886v-15.221h31.503v19.389q0 11.597 7.643 11.597 4.288 0 5.966-2.446t1.677-8.245q0-7.611-1.864-12.594t-4.754-8.335q-2.889-3.353-10.345-10.42l-13.795-13.409q-16.031-15.221-16.031-33.704 0-19.932 9.414-30.352 9.414-10.419 27.495-10.419 21.624 0 31.131 11.144t9.507 34.882h-32.622l-.186-10.691q0-3.08-1.771-4.893t-4.94-1.812q-3.728 0-5.593 1.993t-1.864 5.437q0 7.61 8.948 15.764l18.641 17.396q6.524 6.161 10.812 11.688t6.897 13.047 2.61 17.849q0 23.012-8.668 34.881t-28.614 11.869m114.083-1.449H342.08V78.827h64.125v30.081h-31.503v30.261h30.199v29.355h-30.199v35.697h33.554zm10.625 0V78.827h49.213q11.744 0 18.174 5.165 6.432 5.164 8.669 14.496t2.237 23.829q0 13.228-3.542 20.657t-12.303 10.329q7.27 1.449 10.532 7.067 3.262 5.617 3.262 15.221l-.373 58.892h-31.317v-60.885q0-6.524-2.609-8.336t-9.507-1.812v71.033zm32.622-98.032h7.643q6.711 0 6.711-14.134 0-6.161-.56-9.242-.559-3.08-2.05-4.258t-4.288-1.178h-7.456zm114.829 98.032h-43.807L502.766 78.646h30.571l11.744 106.005L555.52 78.646h30.571zm51.822 0h-31.131l15.472-155.656h54.246l15.285 155.656h-30.384l-2.237-25.188h-19.387zm10.252-129.199-5.965 79.186h14.54l-7.083-79.186z" data-color="1"/>
            <path fill="#D7B28B" d="M697.228 186.458q36.549-32.032 58.426-58.83 21.876-26.799 21.876-48.365 0-20.932-14.14-20.932-8.003 0-11.605 7.295-3.601 7.294-3.868 24.103h-50.956q1.601-42.18 21.343-62.953t49.355-20.773q32.281 0 47.754 19.029 15.474 19.028 15.474 48.205 0 31.398-18.808 60.258t-46.288 49.157h67.764v50.426H697.228zM972.55 9.175v45.668l-66.163 181.089H852.23l66.963-173.478h-74.166V9.175z" data-color="2"/>
            <path d="M44.149 19.31h620.902c9.217 0 16.699 7.484 16.699 16.702v.146c0 9.218-7.482 16.702-16.699 16.702H44.149c-9.217 0-16.699-7.484-16.699-16.702v-.146c0-9.218 7.482-16.702 16.699-16.702" fill="#d7b28b" data-color="3"/>
            <path d="M47.732 260.45h904.536c11.194 0 20.282 7.517 20.282 16.775S963.462 294 952.268 294H47.732c-11.194 0-20.282-7.517-20.282-16.775s9.088-16.775 20.282-16.775" fill="#d7b28b" data-color="3"/>
            <path d="M60.99 36.082v241.146c0 9.256-7.514 16.772-16.77 16.772s-16.77-7.516-16.77-16.772V36.082c0-9.256 7.514-16.772 16.77-16.772s16.77 7.516 16.77 16.772" fill="#d7b28b" data-color="3"/>
        </g>
    </g>
</svg>
